<svg width="28" height="32" viewBox="0 0 28 32" fill="none" xmlns="http://www.w3.org/2000/svg">
<g clip-path="url(#clip0_109_92)">
<path d="M6 0C2.6875 0 0 2.6875 0 6V26C0 29.3125 2.6875 32 6 32H24H26C27.1063 32 28 31.1063 28 30C28 28.8937 27.1063 28 26 28V24C27.1063 24 28 23.1063 28 22V2C28 0.89375 27.1063 0 26 0H24H6ZM6 24H22V28H6C4.89375 28 4 27.1063 4 26C4 24.8937 4.89375 24 6 24ZM8 9C8 8.45 8.45 8 9 8H21C21.55 8 22 8.45 22 9C22 9.55 21.55 10 21 10H9C8.45 10 8 9.55 8 9ZM9 12H21C21.55 12 22 12.45 22 13C22 13.55 21.55 14 21 14H9C8.45 14 8 13.55 8 13C8 12.45 8.45 12 9 12Z" fill="black"/>
</g>
<defs>
<clipPath id="clip0_109_92">
<rect width="28" height="32" fill="white"/>
</clipPath>
</defs>
</svg>
