<svg width="32" height="30" viewBox="0 0 32 30" fill="none" xmlns="http://www.w3.org/2000/svg">
<path d="M29.3333 3.88888C29.3333 3.14999 28.7389 2.55554 28 2.55554C27.2611 2.55554 26.6667 3.14999 26.6667 3.88888V4.33332H1.77778C0.794444 4.33332 0 5.12776 0 6.1111V12.3333C0 13.3167 0.794444 14.1111 1.77778 14.1111H2.33333C3.48889 14.1111 4.33889 15.2 4.05556 16.3222L1.83333 25.2333C1.7 25.7667 1.82222 26.3278 2.15556 26.7611C2.48889 27.1944 3.00556 27.4444 3.55556 27.4444H8.88889C9.70556 27.4444 10.4167 26.8889 10.6111 26.1L12.0556 20.3333H17.8556C19.1722 20.3333 20.3444 19.5055 20.7833 18.2667L22.2722 14.1111H24C24.4722 14.1111 24.9222 13.9222 25.2556 13.5889L26.5167 12.3333H30.2222C31.2056 12.3333 32 11.5389 32 10.5555V6.1111C32 5.12776 31.2056 4.33332 30.2222 4.33332H29.3333V3.88888ZM17.8556 17.6667H12.7222L13.6111 14.1111H19.4444L18.2778 17.3722C18.2167 17.55 18.0444 17.6667 17.8611 17.6667H17.8556ZM4.44444 7.88888H25.7778C26.2667 7.88888 26.6667 8.28888 26.6667 8.77776C26.6667 9.26665 26.2667 9.66665 25.7778 9.66665H4.44444C3.95556 9.66665 3.55556 9.26665 3.55556 8.77776C3.55556 8.28888 3.95556 7.88888 4.44444 7.88888Z" fill="black"/>
</svg>
