<svg width="32" height="30" viewBox="0 0 32 30" fill="none" xmlns="http://www.w3.org/2000/svg">
<g clip-path="url(#clip0_109_101)">
<path d="M31.9889 14.9724C31.9889 15.9661 31.1556 16.7446 30.2111 16.7446H28.4333L28.4722 25.5889C28.4722 25.738 28.4611 25.8871 28.4444 26.0361V26.925C28.4444 28.1451 27.45 29.1333 26.2222 29.1333H25.3333C25.2722 29.1333 25.2111 29.1333 25.15 29.1278C25.0722 29.1333 24.9944 29.1333 24.9167 29.1333H23.1111H21.7778C20.55 29.1333 19.5556 28.1451 19.5556 26.925V25.6V22.0666C19.5556 21.0895 18.7611 20.3 17.7778 20.3H14.2222C13.2389 20.3 12.4444 21.0895 12.4444 22.0666V25.6V26.925C12.4444 28.1451 11.45 29.1333 10.2222 29.1333H8.88889H7.11667C7.03333 29.1333 6.95 29.1278 6.86667 29.1223C6.8 29.1278 6.73333 29.1333 6.66667 29.1333H5.77778C4.55 29.1333 3.55556 28.1451 3.55556 26.925V20.7416C3.55556 20.692 3.55556 20.6367 3.56111 20.5871V16.7446H1.77778C0.777778 16.7446 0 15.9716 0 14.9724C0 14.4755 0.166667 14.0338 0.555556 13.6474L14.8 1.3083C15.1889 0.921847 15.6333 0.866638 16.0222 0.866638C16.4111 0.866638 16.8556 0.977055 17.1889 1.2531L31.3778 13.6474C31.8222 14.0338 32.0444 14.4755 31.9889 14.9724Z" fill="black"/>
</g>
<defs>
<clipPath id="clip0_109_101">
<rect width="32" height="28.2667" fill="white" transform="translate(0 0.866638)"/>
</clipPath>
</defs>
</svg>
